<svg 
 xmlns="http://www.w3.org/2000/svg"
 xmlns:xlink="http://www.w3.org/1999/xlink"
 width="100px" height="100px">
<path fill-rule="evenodd"  fill="rgb(51, 50, 59)"
 d="M98.395,72.792 C98.172,73.160 97.682,74.280 97.164,75.465 C96.223,77.614 95.070,80.251 94.117,81.707 L94.672,92.039 L97.574,92.039 C98.156,92.039 98.629,92.509 98.629,93.087 L98.629,98.644 C98.629,99.222 98.156,99.692 97.574,99.692 L71.633,99.692 L9.497,99.998 C9.495,99.998 9.493,99.998 9.491,99.998 C9.213,99.998 8.945,99.889 8.748,99.693 C8.548,99.497 8.437,99.230 8.437,98.951 L8.437,54.544 C5.001,53.478 2.128,50.894 0.800,47.456 C0.269,46.083 -0.000,44.654 -0.000,43.212 C-0.000,37.880 3.557,33.360 8.437,31.866 L8.437,27.275 L8.437,16.464 C8.437,15.885 8.909,15.416 9.491,15.416 L30.002,15.416 C29.550,14.769 29.174,14.073 28.892,13.342 C28.452,12.203 28.229,11.020 28.229,9.825 C28.229,4.406 32.668,-0.003 38.124,-0.003 C43.581,-0.003 48.020,4.406 48.020,9.825 C48.020,11.020 47.797,12.203 47.357,13.342 C47.074,14.074 46.698,14.770 46.246,15.416 L51.079,15.416 C54.135,6.302 62.843,-0.003 72.555,-0.003 C85.045,-0.003 95.206,10.090 95.206,22.497 C95.206,32.319 88.870,40.931 79.440,43.926 C78.679,44.167 77.911,44.354 77.144,44.513 L77.144,51.201 L77.571,51.201 C78.101,51.201 78.547,51.590 78.617,52.112 L79.103,55.777 L84.422,56.061 C84.501,56.065 84.582,56.085 84.662,56.094 C85.148,54.264 85.654,52.294 85.846,51.543 C84.898,48.903 84.882,46.560 85.798,44.574 C87.091,41.772 89.778,40.780 89.891,40.739 C89.931,40.725 89.971,40.713 90.011,40.703 C90.610,40.566 91.226,40.625 91.748,40.873 C92.342,41.154 92.763,41.658 92.902,42.257 L96.271,56.638 L98.671,61.355 C100.545,65.037 100.439,69.420 98.395,72.792 ZM96.519,94.135 L93.672,94.135 L71.627,94.135 L69.261,94.135 L69.261,97.596 L71.622,97.596 C71.624,97.596 71.626,97.596 71.627,97.596 L96.519,97.596 L96.519,94.135 ZM83.251,72.427 C83.161,72.391 83.078,72.345 83.003,72.289 L80.019,72.130 C80.016,72.130 80.013,72.130 80.010,72.130 L65.094,71.333 C65.093,71.333 65.093,71.333 65.093,71.333 L65.091,71.333 L62.427,71.190 C62.332,71.185 62.239,71.196 62.146,71.202 C62.056,71.207 61.965,71.212 61.878,71.227 C61.815,71.238 61.754,71.257 61.693,71.272 C61.605,71.295 61.516,71.318 61.432,71.350 C61.371,71.373 61.313,71.404 61.255,71.432 C61.175,71.470 61.095,71.507 61.021,71.553 C60.962,71.589 60.908,71.634 60.852,71.676 C60.785,71.726 60.715,71.774 60.653,71.831 C60.604,71.877 60.563,71.929 60.518,71.978 C60.458,72.042 60.396,72.103 60.344,72.174 C60.317,72.210 60.299,72.251 60.274,72.288 C60.051,72.629 59.905,73.026 59.881,73.460 L59.871,73.650 C59.862,73.816 59.870,73.978 59.894,74.136 C59.905,74.213 59.932,74.286 59.951,74.360 C59.971,74.438 59.983,74.519 60.010,74.594 C60.051,74.705 60.106,74.808 60.162,74.911 C60.180,74.944 60.192,74.981 60.211,75.014 C60.288,75.140 60.377,75.258 60.475,75.369 C60.480,75.374 60.483,75.380 60.487,75.385 C60.901,75.843 61.490,76.144 62.156,76.179 C62.156,76.179 62.157,76.179 62.158,76.179 L62.617,76.204 L71.088,76.657 L71.684,76.688 C71.684,76.688 71.684,76.688 71.684,76.688 L71.684,76.688 C71.684,76.688 71.684,76.688 71.684,76.688 L75.159,76.874 L79.176,77.089 C79.176,77.089 79.176,77.089 79.176,77.089 L80.584,77.164 C80.588,77.164 80.592,77.164 80.596,77.165 L80.679,77.169 L82.226,77.252 C82.868,77.295 83.491,77.070 83.972,76.640 C84.453,76.211 84.737,75.622 84.772,74.981 L84.782,74.791 C84.838,73.756 84.222,72.806 83.251,72.427 ZM86.365,70.370 C87.041,70.411 87.680,70.181 88.180,69.735 C88.680,69.288 88.975,68.676 89.011,68.010 C89.047,67.343 88.820,66.703 88.371,66.207 C87.922,65.710 87.305,65.416 86.634,65.381 L86.634,65.381 L65.071,64.229 L62.906,64.113 C62.794,64.107 62.687,64.119 62.579,64.126 C62.501,64.132 62.423,64.135 62.346,64.147 C62.279,64.159 62.215,64.179 62.150,64.195 C62.062,64.218 61.973,64.237 61.888,64.269 C61.825,64.292 61.767,64.325 61.706,64.354 C61.627,64.391 61.546,64.424 61.471,64.469 C61.338,64.550 61.210,64.642 61.090,64.749 C60.590,65.195 60.295,65.807 60.260,66.473 C60.185,67.849 61.251,69.028 62.635,69.102 L76.523,69.844 L80.122,70.037 C80.123,70.037 80.123,70.037 80.123,70.037 L82.584,70.168 L83.697,70.228 C83.697,70.228 83.697,70.228 83.697,70.228 L83.697,70.228 C83.698,70.228 83.698,70.228 83.698,70.228 L86.365,70.370 ZM82.536,80.862 C82.529,80.838 82.509,80.819 82.500,80.794 C82.419,80.566 82.313,80.348 82.166,80.158 C82.123,80.102 82.057,80.067 82.008,80.015 C81.875,79.873 81.742,79.729 81.574,79.623 C81.348,79.481 81.093,79.378 80.816,79.318 C80.813,79.318 80.810,79.315 80.806,79.314 C80.689,79.290 80.573,79.262 80.451,79.256 L77.624,79.105 L69.756,78.684 L64.160,78.385 C64.160,78.385 64.159,78.385 64.159,78.385 L63.071,78.327 L61.748,78.256 C61.646,78.250 61.547,78.262 61.447,78.269 C61.372,78.275 61.295,78.278 61.221,78.291 C61.154,78.303 61.089,78.323 61.024,78.341 C60.944,78.362 60.864,78.381 60.788,78.411 C60.731,78.433 60.679,78.462 60.624,78.488 C60.546,78.525 60.468,78.561 60.395,78.606 C60.346,78.637 60.301,78.675 60.254,78.710 C60.185,78.761 60.114,78.810 60.050,78.869 C60.005,78.910 59.967,78.959 59.926,79.003 C59.869,79.064 59.810,79.123 59.760,79.190 C59.719,79.246 59.687,79.308 59.651,79.367 C59.611,79.432 59.567,79.494 59.534,79.563 C59.497,79.639 59.473,79.723 59.444,79.804 C59.424,79.863 59.397,79.918 59.381,79.979 C59.343,80.124 59.319,80.275 59.310,80.431 L59.289,80.824 C59.220,82.092 60.203,83.178 61.478,83.246 L80.181,84.245 C80.375,84.258 80.587,84.231 80.845,84.169 C81.206,84.082 81.510,83.897 81.779,83.675 C82.258,83.279 82.583,82.720 82.618,82.071 L82.639,81.677 C82.654,81.394 82.618,81.119 82.536,80.862 ZM71.535,85.882 L65.467,85.558 C65.498,85.601 65.522,85.647 65.555,85.689 C65.614,85.765 65.679,85.837 65.743,85.911 C65.878,86.066 66.025,86.216 66.182,86.360 C66.256,86.428 66.328,86.497 66.407,86.562 C66.600,86.723 66.809,86.874 67.028,87.017 C67.079,87.051 67.125,87.089 67.178,87.121 C67.453,87.291 67.748,87.445 68.057,87.586 C68.145,87.626 68.240,87.660 68.331,87.698 C68.563,87.794 68.803,87.884 69.052,87.965 C69.170,88.003 69.291,88.038 69.413,88.072 C69.660,88.141 69.916,88.201 70.177,88.254 C70.293,88.278 70.408,88.304 70.527,88.324 C70.907,88.388 71.296,88.440 71.699,88.467 C71.980,88.486 72.264,88.499 72.555,88.499 C73.079,88.499 73.588,88.457 74.086,88.395 C74.235,88.376 74.379,88.348 74.525,88.324 C74.885,88.264 75.236,88.189 75.575,88.097 C75.708,88.061 75.842,88.027 75.971,87.987 C76.884,87.698 77.710,87.294 78.406,86.777 C78.537,86.680 78.661,86.579 78.782,86.475 C78.857,86.410 78.939,86.348 79.009,86.281 L71.535,85.882 ZM2.109,43.212 C2.109,44.397 2.331,45.573 2.769,46.706 C4.221,50.462 7.910,52.987 11.950,52.987 C15.990,52.987 19.680,50.463 21.130,46.706 C21.568,45.571 21.791,44.396 21.791,43.212 C21.791,37.821 17.377,33.436 11.950,33.436 C6.524,33.436 2.109,37.821 2.109,43.212 ZM38.124,2.092 C33.831,2.092 30.338,5.562 30.338,9.825 C30.338,10.763 30.514,11.693 30.861,12.591 C31.315,13.768 32.070,14.834 33.044,15.672 C34.458,16.889 36.262,17.560 38.124,17.560 C39.987,17.560 41.791,16.889 43.204,15.672 C44.177,14.834 44.933,13.769 45.388,12.591 C45.734,11.693 45.910,10.763 45.910,9.825 C45.910,5.562 42.417,2.092 38.124,2.092 ZM44.276,17.511 C44.243,17.537 44.205,17.555 44.172,17.581 C43.788,17.877 43.387,18.145 42.967,18.381 C42.904,18.416 42.840,18.448 42.775,18.482 C42.345,18.712 41.900,18.913 41.441,19.076 C41.385,19.096 41.328,19.112 41.271,19.131 C40.796,19.291 40.311,19.420 39.815,19.506 C39.778,19.513 39.741,19.515 39.704,19.521 C39.184,19.606 38.656,19.655 38.124,19.655 C37.592,19.655 37.065,19.606 36.545,19.521 C36.508,19.515 36.470,19.513 36.432,19.506 C35.937,19.420 35.452,19.291 34.978,19.131 C34.921,19.112 34.863,19.096 34.806,19.076 C34.348,18.913 33.904,18.712 33.473,18.482 C33.409,18.448 33.345,18.416 33.281,18.381 C32.861,18.145 32.460,17.876 32.075,17.580 C32.043,17.554 32.005,17.537 31.972,17.511 L10.546,17.511 L10.546,26.228 L50.216,26.228 C50.009,24.996 49.904,23.746 49.904,22.497 C49.904,20.821 50.094,19.149 50.470,17.511 L44.276,17.511 ZM50.676,28.323 L10.546,28.323 L10.546,31.430 C11.007,31.376 11.474,31.341 11.950,31.341 C18.540,31.341 23.900,36.665 23.900,43.212 C23.900,44.654 23.631,46.082 23.100,47.456 C21.338,52.017 16.858,55.082 11.950,55.082 C11.476,55.082 11.010,55.029 10.546,54.974 L10.546,97.898 L67.151,97.618 L67.151,93.087 C67.151,92.509 67.624,92.039 68.206,92.039 L70.573,92.039 L70.573,90.437 C66.938,89.930 64.075,88.059 62.964,85.424 L61.364,85.338 C61.064,85.322 60.770,85.276 60.486,85.202 C60.431,85.188 60.383,85.162 60.329,85.146 C60.103,85.079 59.880,85.005 59.668,84.902 C59.633,84.885 59.603,84.860 59.568,84.842 C59.349,84.729 59.135,84.606 58.936,84.456 C58.926,84.449 58.918,84.438 58.908,84.431 C58.695,84.267 58.493,84.088 58.309,83.885 C58.123,83.680 57.963,83.458 57.822,83.227 C57.817,83.220 57.810,83.213 57.805,83.205 C57.677,82.993 57.577,82.769 57.487,82.540 C57.472,82.504 57.450,82.471 57.437,82.434 C57.358,82.218 57.309,81.992 57.266,81.764 C57.255,81.706 57.233,81.653 57.224,81.594 C57.181,81.305 57.166,81.010 57.182,80.712 L57.203,80.318 C57.221,79.993 57.282,79.678 57.367,79.371 C57.392,79.282 57.431,79.200 57.462,79.113 C57.536,78.901 57.619,78.695 57.724,78.498 C57.774,78.406 57.831,78.320 57.887,78.232 C57.997,78.058 58.116,77.892 58.250,77.734 C58.324,77.647 58.400,77.565 58.480,77.484 C58.545,77.419 58.597,77.344 58.666,77.282 C58.750,77.208 58.842,77.150 58.933,77.088 C58.986,77.047 59.028,76.995 59.083,76.957 C58.207,76.084 57.693,74.861 57.764,73.539 L57.775,73.349 C57.850,71.951 58.563,70.736 59.618,69.965 C58.652,69.069 58.077,67.771 58.153,66.361 C58.172,66.020 58.235,65.690 58.325,65.369 C58.340,65.317 58.363,65.270 58.380,65.218 C58.469,64.939 58.584,64.671 58.725,64.415 C58.731,64.403 58.739,64.392 58.746,64.380 C58.992,63.942 59.295,63.534 59.681,63.190 C59.790,63.093 59.903,63.002 60.019,62.916 C59.910,62.816 59.806,62.712 59.706,62.602 C58.885,61.693 58.469,60.522 58.535,59.303 C58.675,56.737 60.850,54.817 63.379,54.937 L66.100,55.083 L66.493,52.111 C66.563,51.590 67.010,51.201 67.539,51.201 L67.966,51.201 L67.966,44.512 C59.677,42.801 52.878,36.448 50.676,28.323 ZM78.797,41.930 C87.351,39.214 93.097,31.404 93.097,22.497 C93.097,11.246 83.882,2.092 72.555,2.092 C63.503,2.092 55.399,8.123 52.846,16.759 C52.846,16.759 52.846,16.760 52.845,16.760 C52.293,18.631 52.013,20.561 52.013,22.497 C52.013,24.026 52.186,25.555 52.528,27.042 C52.528,27.042 52.528,27.043 52.528,27.044 C54.365,35.027 61.062,41.289 69.193,42.625 C69.711,42.710 70.228,42.770 70.744,42.816 C71.348,42.869 71.952,42.901 72.555,42.901 C73.675,42.901 74.794,42.809 75.918,42.625 C76.873,42.467 77.842,42.234 78.797,41.930 ZM69.021,53.296 L68.464,53.296 L68.213,55.195 L70.282,55.306 L76.960,55.663 L76.646,53.296 L76.089,53.296 L69.021,53.296 ZM75.035,51.201 L75.035,44.860 C74.951,44.869 74.868,44.865 74.785,44.874 C74.038,44.948 73.292,44.998 72.555,44.998 C71.818,44.998 71.073,44.948 70.326,44.874 C70.242,44.865 70.159,44.869 70.076,44.860 L70.076,51.201 L75.035,51.201 ZM85.045,58.324 C84.766,58.220 84.533,58.165 84.310,58.154 L78.124,57.823 C78.121,57.823 78.118,57.823 78.114,57.823 L66.962,57.227 C66.962,57.227 66.962,57.227 66.961,57.227 L63.266,57.029 C63.164,57.023 63.067,57.036 62.969,57.041 C62.870,57.048 62.771,57.052 62.675,57.070 C62.639,57.076 62.605,57.088 62.569,57.096 C61.826,57.268 61.201,57.767 60.878,58.446 C60.877,58.448 60.876,58.451 60.875,58.454 C60.810,58.591 60.758,58.735 60.719,58.885 C60.679,59.040 60.653,59.201 60.644,59.368 C60.606,60.076 60.831,60.710 61.276,61.202 C61.720,61.694 62.331,61.983 62.994,62.019 L63.018,62.020 C63.019,62.021 63.019,62.020 63.019,62.020 L65.336,62.144 L79.175,62.883 C79.175,62.883 79.176,62.884 79.176,62.884 L84.038,63.143 C84.696,63.182 85.342,62.956 85.837,62.513 C85.958,62.405 86.067,62.287 86.163,62.161 C86.239,62.060 86.303,61.949 86.363,61.836 C86.378,61.808 86.399,61.783 86.413,61.755 C86.473,61.632 86.518,61.501 86.558,61.367 C86.564,61.344 86.577,61.322 86.583,61.298 C86.624,61.140 86.651,60.976 86.660,60.807 C86.697,60.117 86.482,59.496 86.058,59.008 C85.802,58.714 85.451,58.478 85.045,58.324 ZM96.788,62.300 L94.331,57.470 C94.293,57.395 94.264,57.317 94.245,57.235 L92.311,48.978 C92.250,48.980 92.188,48.986 92.128,48.986 C91.532,48.986 90.961,48.873 90.487,48.659 C89.718,48.311 89.240,47.710 89.178,47.009 L89.049,45.555 C88.998,44.979 89.427,44.470 90.007,44.419 C90.593,44.373 91.100,44.795 91.150,45.371 L91.269,46.704 C91.355,46.760 91.549,46.831 91.817,46.866 L90.848,42.730 C90.846,42.749 90.777,42.725 90.662,42.725 C90.629,42.725 90.592,42.727 90.551,42.732 C90.217,42.875 88.525,43.666 87.704,45.471 C87.008,47.002 87.086,48.900 87.934,51.112 C88.012,51.314 88.025,51.534 87.971,51.742 C87.971,51.742 87.290,54.420 86.658,56.792 C86.694,56.815 86.726,56.844 86.761,56.868 C86.806,56.898 86.846,56.931 86.890,56.962 C87.170,57.163 87.432,57.383 87.653,57.636 C87.849,57.861 88.020,58.102 88.167,58.355 C88.605,59.113 88.817,59.980 88.769,60.869 C88.716,61.848 88.382,62.739 87.812,63.470 C88.626,63.707 89.360,64.163 89.941,64.806 C90.765,65.719 91.184,66.896 91.118,68.122 C91.051,69.347 90.509,70.474 89.589,71.294 C89.371,71.489 89.136,71.659 88.891,71.807 C88.781,71.873 88.663,71.918 88.549,71.975 C88.407,72.045 88.269,72.122 88.121,72.177 C87.992,72.225 87.856,72.252 87.723,72.288 C87.579,72.328 87.436,72.373 87.287,72.399 C87.161,72.420 87.031,72.423 86.902,72.434 C86.770,72.445 86.639,72.470 86.505,72.470 C86.447,72.470 86.390,72.467 86.332,72.465 C86.328,72.465 86.324,72.466 86.320,72.466 C86.487,72.763 86.611,73.082 86.707,73.412 C86.846,73.888 86.916,74.388 86.889,74.904 L86.878,75.093 C86.813,76.293 86.282,77.396 85.381,78.199 C84.961,78.574 84.484,78.862 83.972,79.057 C84.511,79.830 84.800,80.782 84.746,81.790 L84.724,82.183 C84.628,83.958 83.487,85.460 81.830,86.059 C81.600,86.472 81.311,86.855 80.995,87.221 C80.928,87.298 80.851,87.370 80.781,87.446 C80.529,87.715 80.258,87.969 79.963,88.207 C79.890,88.267 79.837,88.338 79.761,88.396 C79.702,88.440 79.630,88.470 79.570,88.514 C79.214,88.770 78.836,89.006 78.433,89.218 C78.310,89.283 78.188,89.348 78.061,89.408 C77.637,89.610 77.190,89.786 76.726,89.938 C76.535,90.001 76.341,90.052 76.145,90.106 C75.755,90.213 75.355,90.301 74.944,90.372 C74.767,90.403 74.595,90.439 74.415,90.463 C73.851,90.538 73.275,90.589 72.682,90.594 L72.682,92.039 L92.559,92.039 L91.991,81.466 C91.978,81.226 92.049,80.989 92.190,80.795 C93.046,79.619 94.308,76.736 95.230,74.629 C95.824,73.271 96.293,72.198 96.588,71.712 C98.261,68.951 98.338,65.345 96.788,62.300 ZM83.695,62.742 L82.225,62.742 C81.643,62.742 81.170,62.273 81.170,61.695 C81.170,61.116 81.643,60.647 82.225,60.647 L83.695,60.647 C83.778,60.647 83.845,60.580 83.845,60.498 C83.845,59.919 84.318,59.451 84.900,59.451 C85.482,59.451 85.955,59.919 85.955,60.498 C85.955,61.735 84.941,62.742 83.695,62.742 ZM55.688,27.580 C55.184,25.932 54.929,24.222 54.929,22.497 C54.929,20.291 55.343,18.132 56.160,16.079 C58.842,9.341 65.278,4.988 72.555,4.988 C82.274,4.988 90.182,12.842 90.182,22.497 C90.182,29.480 86.004,35.789 79.537,38.571 C77.322,39.524 74.974,40.006 72.555,40.006 C64.863,40.006 57.927,34.896 55.688,27.580 ZM88.030,23.642 C88.058,23.263 88.072,22.881 88.072,22.497 C88.072,13.998 81.111,7.083 72.555,7.083 C66.149,7.083 60.483,10.916 58.121,16.849 C57.402,18.656 57.038,20.556 57.038,22.497 C57.038,24.015 57.263,25.520 57.707,26.970 C59.678,33.412 65.783,37.911 72.555,37.911 C74.684,37.911 76.750,37.486 78.700,36.648 C84.038,34.352 87.605,29.326 88.030,23.642 ZM72.059,33.549 C71.653,33.333 62.100,28.200 61.316,21.184 C61.108,19.324 61.712,17.455 62.973,16.055 C64.168,14.730 65.803,13.970 67.460,13.970 C69.577,13.970 71.448,15.212 72.555,17.098 C73.662,15.212 75.533,13.970 77.651,13.970 C79.307,13.970 80.943,14.730 82.138,16.056 C83.398,17.456 84.003,19.325 83.795,21.185 C83.011,28.200 73.457,33.333 73.051,33.549 C72.896,33.631 72.725,33.672 72.555,33.672 C72.385,33.672 72.214,33.631 72.059,33.549 ZM81.698,20.953 C81.840,19.685 81.427,18.409 80.566,17.454 C79.771,16.571 78.709,16.065 77.651,16.065 C75.422,16.065 73.610,18.310 73.610,21.069 C73.610,21.647 73.137,22.116 72.555,22.116 C71.973,22.116 71.500,21.647 71.500,21.069 C71.500,18.310 69.688,16.065 67.460,16.065 C66.402,16.065 65.340,16.571 64.545,17.453 C63.683,18.409 63.271,19.685 63.413,20.953 C63.983,26.064 70.661,30.311 72.554,31.419 C74.447,30.309 81.128,26.053 81.698,20.953 ZM67.203,23.034 C65.614,23.034 64.321,21.749 64.321,20.171 C64.321,18.592 65.614,17.308 67.203,17.308 C68.792,17.308 70.085,18.592 70.085,20.171 C70.085,21.749 68.792,23.034 67.203,23.034 ZM67.203,19.403 C66.777,19.403 66.430,19.748 66.430,20.171 C66.430,20.594 66.777,20.938 67.203,20.938 C67.628,20.938 67.975,20.594 67.975,20.171 C67.975,19.748 67.628,19.403 67.203,19.403 ZM80.445,38.706 C80.966,38.455 81.598,38.671 81.851,39.188 C82.105,39.712 81.886,40.340 81.366,40.591 C81.218,40.662 81.057,40.696 80.902,40.696 C80.515,40.696 80.135,40.481 79.953,40.110 C79.700,39.586 79.918,38.957 80.445,38.706 ZM88.221,33.531 C88.672,33.894 88.749,34.551 88.383,35.004 C88.179,35.262 87.870,35.396 87.561,35.396 C87.329,35.396 87.097,35.325 86.907,35.172 C86.450,34.809 86.372,34.152 86.738,33.699 C87.097,33.244 87.765,33.167 88.221,33.531 ZM91.020,17.222 C91.582,17.090 92.152,17.446 92.279,18.011 C92.279,18.011 92.279,18.011 92.286,18.011 C92.412,18.571 92.060,19.136 91.491,19.262 C91.414,19.282 91.329,19.289 91.252,19.289 C90.774,19.289 90.338,18.962 90.226,18.472 C90.099,17.914 90.450,17.348 91.020,17.222 ZM91.498,25.694 C92.060,25.820 92.419,26.385 92.292,26.945 C92.180,27.433 91.744,27.762 91.259,27.762 C91.181,27.762 91.105,27.754 91.027,27.741 C90.458,27.608 90.106,27.049 90.232,26.484 C90.359,25.918 90.929,25.569 91.498,25.694 ZM87.539,11.663 C87.230,11.663 86.921,11.530 86.717,11.272 C86.351,10.818 86.429,10.161 86.878,9.798 C87.336,9.435 87.997,9.511 88.362,9.959 C88.728,10.412 88.650,11.069 88.201,11.432 C88.004,11.586 87.772,11.663 87.539,11.663 ZM80.867,6.376 C80.719,6.376 80.558,6.340 80.410,6.271 C79.890,6.019 79.665,5.391 79.925,4.874 C80.171,4.350 80.804,4.134 81.331,4.385 C81.851,4.637 82.069,5.265 81.823,5.782 C81.641,6.159 81.261,6.376 80.867,6.376 ZM72.557,4.490 C72.542,4.490 72.528,4.490 72.514,4.490 C72.507,4.490 72.493,4.490 72.479,4.490 C71.902,4.497 71.424,4.029 71.424,3.449 C71.424,2.869 71.888,2.395 72.472,2.395 C72.486,2.395 72.500,2.395 72.514,2.395 C72.528,2.395 72.542,2.395 72.557,2.395 C73.140,2.395 73.611,2.863 73.611,3.442 C73.611,4.022 73.140,4.490 72.557,4.490 ZM64.632,6.306 C64.484,6.376 64.323,6.411 64.168,6.411 C63.781,6.411 63.402,6.194 63.226,5.824 C62.966,5.300 63.184,4.671 63.711,4.420 C63.711,4.420 63.711,4.420 63.704,4.420 C64.231,4.168 64.864,4.385 65.118,4.902 C65.370,5.419 65.153,6.047 64.632,6.306 ZM57.523,11.719 C57.292,11.719 57.060,11.649 56.870,11.496 C56.413,11.132 56.336,10.476 56.701,10.022 C57.060,9.567 57.720,9.491 58.178,9.854 C58.634,10.210 58.712,10.874 58.347,11.321 C58.143,11.586 57.833,11.719 57.523,11.719 ZM54.100,27.810 C54.022,27.825 53.945,27.839 53.868,27.839 C53.382,27.839 52.946,27.510 52.834,27.021 C52.707,26.463 53.059,25.896 53.629,25.771 C54.191,25.638 54.760,25.988 54.894,26.553 C55.021,27.119 54.669,27.678 54.100,27.810 ZM53.840,19.366 C53.762,19.366 53.684,19.353 53.608,19.338 C53.038,19.213 52.679,18.647 52.813,18.088 C52.939,17.523 53.502,17.167 54.072,17.292 C54.641,17.418 54.992,17.984 54.866,18.543 C54.760,19.031 54.318,19.366 53.840,19.366 ZM58.417,33.754 C58.782,34.201 58.712,34.865 58.255,35.228 C58.058,35.381 57.826,35.458 57.594,35.458 C57.284,35.458 56.982,35.319 56.771,35.068 C56.405,34.613 56.476,33.957 56.933,33.594 C57.390,33.230 58.051,33.300 58.417,33.754 ZM64.730,38.734 L64.730,38.741 C65.251,38.985 65.476,39.614 65.223,40.138 C65.040,40.508 64.667,40.732 64.274,40.732 C64.119,40.732 63.964,40.696 63.816,40.627 C63.289,40.375 63.071,39.746 63.324,39.230 C63.571,38.706 64.203,38.489 64.730,38.734 ZM72.591,40.501 C73.175,40.501 73.646,40.969 73.646,41.548 C73.646,42.128 73.175,42.596 72.599,42.596 C72.015,42.596 71.537,42.128 71.537,41.548 C71.537,40.976 72.008,40.501 72.591,40.501 ZM51.470,92.364 L17.720,92.364 C17.138,92.364 16.665,91.895 16.665,91.316 L16.665,64.779 C16.665,64.756 16.677,64.737 16.679,64.714 C16.685,64.619 16.703,64.528 16.735,64.438 C16.746,64.405 16.755,64.372 16.769,64.340 C16.820,64.232 16.884,64.129 16.972,64.041 L16.974,64.039 C16.974,64.039 16.974,64.039 16.974,64.039 L25.477,55.541 C25.477,55.540 25.478,55.540 25.478,55.540 C25.480,55.538 25.482,55.538 25.483,55.536 C25.571,55.450 25.673,55.386 25.782,55.336 C25.813,55.322 25.846,55.313 25.879,55.302 C25.970,55.270 26.063,55.251 26.159,55.245 C26.182,55.244 26.201,55.232 26.225,55.232 L51.470,55.232 C52.052,55.232 52.525,55.701 52.525,56.280 L52.525,91.316 C52.525,91.895 52.052,92.364 51.470,92.364 ZM25.170,58.819 L20.255,63.732 L25.170,63.732 L25.170,58.819 ZM50.415,57.327 L27.279,57.327 L27.279,64.779 C27.279,65.358 26.807,65.827 26.225,65.827 L18.775,65.827 L18.775,90.269 L50.415,90.269 L50.415,57.327 ZM23.854,69.098 L44.141,69.098 C44.723,69.098 45.196,69.568 45.196,70.146 C45.196,70.724 44.723,71.193 44.141,71.193 L23.854,71.193 C23.272,71.193 22.800,70.724 22.800,70.146 C22.800,69.568 23.272,69.098 23.854,69.098 ZM23.854,73.813 L44.141,73.813 C44.723,73.813 45.196,74.283 45.196,74.861 C45.196,75.439 44.723,75.909 44.141,75.909 L23.854,75.909 C23.272,75.909 22.800,75.439 22.800,74.861 C22.800,74.283 23.272,73.813 23.854,73.813 ZM23.854,78.528 L44.141,78.528 C44.723,78.528 45.196,78.997 45.196,79.575 C45.196,80.154 44.723,80.623 44.141,80.623 L23.854,80.623 C23.272,80.623 22.800,80.154 22.800,79.575 C22.800,78.997 23.272,78.528 23.854,78.528 ZM23.854,83.242 L44.141,83.242 C44.723,83.242 45.196,83.711 45.196,84.290 C45.196,84.868 44.723,85.337 44.141,85.337 L23.854,85.337 C23.272,85.337 22.800,84.868 22.800,84.290 C22.800,83.711 23.272,83.242 23.854,83.242 ZM38.124,52.192 C34.383,52.192 30.968,49.856 29.626,46.379 C29.221,45.334 29.016,44.244 29.016,43.143 C29.016,38.153 33.102,34.095 38.124,34.095 C43.147,34.095 47.233,38.153 47.233,43.143 C47.233,44.244 47.027,45.334 46.623,46.380 C45.281,49.856 41.865,52.192 38.124,52.192 ZM38.124,36.190 C34.265,36.190 31.125,39.309 31.125,43.143 C31.125,43.987 31.283,44.823 31.595,45.628 C32.627,48.301 35.250,50.096 38.124,50.096 C40.997,50.096 43.622,48.301 44.654,45.629 C44.966,44.823 45.124,43.987 45.124,43.143 C45.124,39.309 41.984,36.190 38.124,36.190 ZM39.179,47.541 L39.179,47.915 C39.179,48.493 38.706,48.962 38.124,48.962 C37.542,48.962 37.069,48.493 37.069,47.915 L37.069,47.540 C36.094,47.272 35.371,46.392 35.371,45.339 C35.371,44.761 35.844,44.292 36.426,44.292 C37.008,44.292 37.481,44.761 37.481,45.339 C37.481,45.448 37.570,45.537 37.680,45.537 L38.568,45.537 C38.678,45.537 38.768,45.448 38.768,45.339 L38.768,44.457 C38.768,44.348 38.678,44.259 38.568,44.259 L37.680,44.259 C36.407,44.259 35.371,43.230 35.371,41.965 L35.371,41.083 C35.371,40.031 36.094,39.150 37.069,38.882 L37.069,38.372 C37.069,37.793 37.542,37.324 38.124,37.324 C38.706,37.324 39.179,37.793 39.179,38.372 L39.179,38.882 C40.154,39.150 40.877,40.030 40.877,41.083 C40.877,41.661 40.405,42.151 39.823,42.151 C39.240,42.151 38.768,41.700 38.768,41.122 C38.768,40.974 38.678,40.886 38.568,40.886 L37.680,40.886 C37.570,40.886 37.481,40.974 37.481,41.083 L37.481,41.965 C37.481,42.074 37.570,42.164 37.680,42.164 L38.568,42.164 C39.841,42.164 40.877,43.192 40.877,44.457 L40.877,45.339 C40.877,46.393 40.154,47.273 39.179,47.541 ZM31.213,22.607 C31.009,22.810 30.749,22.914 30.468,22.914 C30.186,22.914 29.919,22.810 29.723,22.607 C29.519,22.412 29.413,22.153 29.413,21.867 C29.413,21.804 29.420,21.734 29.435,21.664 C29.448,21.595 29.470,21.532 29.491,21.469 C29.519,21.406 29.554,21.343 29.589,21.287 C29.631,21.232 29.674,21.175 29.723,21.127 C29.772,21.078 29.821,21.035 29.884,21.001 C29.941,20.959 29.997,20.931 30.067,20.903 C30.130,20.875 30.194,20.854 30.264,20.840 C30.398,20.813 30.538,20.813 30.672,20.840 C30.742,20.854 30.805,20.875 30.869,20.903 C30.932,20.931 30.995,20.959 31.052,21.001 C31.108,21.035 31.164,21.078 31.213,21.127 C31.262,21.175 31.305,21.232 31.347,21.287 C31.382,21.343 31.417,21.406 31.438,21.469 C31.466,21.532 31.488,21.595 31.501,21.664 C31.516,21.734 31.523,21.804 31.523,21.867 C31.523,22.007 31.495,22.146 31.445,22.272 C31.389,22.398 31.312,22.510 31.213,22.607 ZM22.389,22.914 C21.805,22.914 21.334,22.447 21.334,21.867 C21.334,21.294 21.805,20.819 22.389,20.819 C22.973,20.819 23.444,21.294 23.444,21.867 C23.444,22.447 22.973,22.914 22.389,22.914 ZM15.056,22.607 C14.958,22.705 14.845,22.781 14.718,22.837 C14.592,22.893 14.451,22.914 14.310,22.914 C14.029,22.914 13.769,22.810 13.565,22.607 C13.368,22.412 13.256,22.153 13.256,21.867 C13.256,21.804 13.263,21.734 13.277,21.664 C13.291,21.595 13.312,21.532 13.340,21.469 C13.368,21.406 13.396,21.343 13.439,21.287 C13.474,21.232 13.516,21.175 13.565,21.127 C13.615,21.078 13.671,21.035 13.727,21.001 C13.783,20.959 13.847,20.931 13.910,20.903 C13.973,20.875 14.043,20.854 14.106,20.840 C14.451,20.770 14.817,20.882 15.056,21.127 C15.105,21.175 15.154,21.232 15.189,21.287 C15.225,21.343 15.260,21.406 15.288,21.469 C15.316,21.532 15.330,21.595 15.344,21.664 C15.358,21.734 15.365,21.804 15.365,21.867 C15.365,22.007 15.337,22.146 15.288,22.272 C15.232,22.398 15.154,22.510 15.056,22.607 ZM39.179,14.578 L39.179,15.063 C39.179,15.642 38.706,16.111 38.124,16.111 C37.542,16.111 37.069,15.642 37.069,15.063 L37.069,14.578 C36.003,14.323 35.206,13.373 35.206,12.236 C35.206,11.657 35.678,11.189 36.260,11.189 C36.843,11.189 37.315,11.657 37.315,12.236 C37.315,12.413 37.459,12.556 37.636,12.556 L38.612,12.556 C38.789,12.556 38.933,12.413 38.933,12.236 L38.933,11.268 C38.933,11.092 38.789,10.949 38.612,10.949 L37.636,10.949 C36.296,10.949 35.206,9.865 35.206,8.533 L35.206,7.565 C35.206,6.429 36.003,5.479 37.069,5.224 L37.069,4.588 C37.069,4.010 37.542,3.541 38.124,3.541 C38.706,3.541 39.179,4.010 39.179,4.588 L39.179,5.223 C40.245,5.479 41.043,6.428 41.043,7.565 C41.043,8.143 40.570,8.634 39.988,8.634 C39.406,8.634 38.933,8.186 38.933,7.608 C38.933,7.389 38.789,7.245 38.612,7.245 L37.636,7.245 C37.459,7.245 37.315,7.389 37.315,7.565 L37.315,8.533 C37.315,8.710 37.459,8.853 37.636,8.853 L38.612,8.853 C39.952,8.853 41.043,9.936 41.043,11.268 L41.043,12.236 C41.043,13.373 40.245,14.323 39.179,14.578 ZM13.005,36.757 L13.005,37.738 C14.305,37.954 15.302,39.072 15.302,40.425 C15.302,41.003 14.829,41.499 14.247,41.499 C13.665,41.499 13.192,41.056 13.192,40.478 C13.192,40.073 12.905,39.787 12.551,39.787 L11.349,39.787 C10.995,39.787 10.707,40.073 10.707,40.425 L10.707,41.618 C10.707,41.970 10.995,42.255 11.349,42.255 L12.551,42.255 C14.068,42.255 15.302,43.481 15.302,44.988 L15.302,46.182 C15.302,47.534 14.305,48.652 13.005,48.869 L13.005,49.666 C13.005,50.245 12.532,50.714 11.950,50.714 C11.368,50.714 10.896,50.245 10.896,49.666 L10.896,48.869 C9.595,48.652 8.598,47.534 8.598,46.182 C8.598,45.604 9.070,45.134 9.653,45.134 C10.235,45.134 10.707,45.604 10.707,46.182 C10.707,46.533 10.995,46.820 11.349,46.820 L12.551,46.820 C12.905,46.820 13.192,46.533 13.192,46.182 L13.192,44.988 C13.192,44.637 12.905,44.351 12.551,44.351 L11.349,44.351 C9.833,44.351 8.598,43.125 8.598,41.618 L8.598,40.425 C8.598,39.072 9.595,37.954 10.896,37.738 L10.896,36.757 C10.896,36.178 11.368,35.708 11.950,35.708 C12.532,35.708 13.005,36.178 13.005,36.757 ZM79.889,83.654 L78.418,83.654 C77.836,83.654 77.364,83.184 77.364,82.606 C77.364,82.027 77.836,81.558 78.418,81.558 L79.889,81.558 C79.971,81.558 80.039,81.491 80.039,81.410 C80.039,80.831 80.511,80.361 81.093,80.361 C81.676,80.361 82.148,80.831 82.148,81.410 C82.148,82.647 81.135,83.654 79.889,83.654 ZM84.503,67.991 L85.973,67.991 C86.056,67.991 86.123,67.924 86.123,67.842 C86.123,67.265 86.595,66.795 87.178,66.795 C87.760,66.795 88.232,67.265 88.232,67.842 C88.232,69.080 87.219,70.086 85.973,70.086 L84.503,70.086 C83.921,70.086 83.449,69.618 83.449,69.039 C83.449,68.461 83.921,67.991 84.503,67.991 ZM82.500,76.846 L81.272,76.846 C80.690,76.846 80.217,76.377 80.217,75.799 C80.217,75.220 80.690,74.751 81.272,74.751 L82.500,74.751 C82.500,74.173 82.947,73.727 83.530,73.727 C84.112,73.727 84.560,74.221 84.560,74.800 C84.560,75.929 83.636,76.846 82.500,76.846 Z"/>
</svg>