<svg 
 xmlns="http://www.w3.org/2000/svg"
 xmlns:xlink="http://www.w3.org/1999/xlink"
 width="100px" height="101px">
<path fill-rule="evenodd"  fill="rgb(51, 50, 59)"
 d="M98.945,100.556 L45.764,100.556 C45.572,100.818 45.277,100.999 44.927,100.999 C44.577,100.999 44.281,100.818 44.090,100.556 L1.051,100.556 C0.469,100.556 -0.003,100.085 -0.003,99.505 L-0.003,88.194 C-0.003,87.613 0.469,87.142 1.051,87.142 L5.234,87.142 L5.234,59.220 C5.234,55.727 7.970,52.889 11.413,52.649 L11.413,29.965 C11.413,25.457 15.067,21.786 19.577,21.732 L19.577,17.913 C19.577,17.332 20.050,16.861 20.632,16.861 L23.872,16.861 L23.872,1.467 C23.872,0.887 24.344,0.416 24.926,0.416 L37.217,0.416 C37.799,0.416 38.272,0.887 38.272,1.467 L38.272,16.861 L41.511,16.861 C42.093,16.861 42.566,17.332 42.566,17.913 L42.566,21.727 L61.538,21.727 L61.538,14.099 L52.218,14.099 C51.636,14.099 51.163,13.629 51.163,13.048 L51.163,7.048 L51.163,1.050 C51.163,0.469 51.636,-0.001 52.218,-0.001 L66.591,-0.001 L79.454,-0.001 C80.036,-0.001 80.509,0.469 80.509,1.050 L80.509,13.048 C80.509,13.629 80.036,14.099 79.454,14.099 L70.134,14.099 L70.134,21.727 L80.473,21.727 C85.030,21.727 88.737,25.423 88.737,29.965 L88.737,52.649 C92.180,52.889 94.916,55.727 94.916,59.220 L94.916,87.142 L98.945,87.142 C99.527,87.142 99.999,87.613 99.999,88.194 L99.999,99.505 C99.999,100.085 99.527,100.556 98.945,100.556 ZM36.162,17.913 L36.162,2.519 L25.981,2.519 L25.981,17.913 L25.981,23.251 L36.162,23.251 L36.162,17.913 ZM40.457,22.778 L40.457,18.964 L38.272,18.964 L38.272,24.302 C38.272,24.883 37.799,25.353 37.217,25.353 L24.926,25.353 C24.344,25.353 23.872,24.883 23.872,24.302 L23.872,18.964 L21.686,18.964 L21.686,22.778 L21.686,27.968 L40.457,27.968 L40.457,22.778 ZM65.536,2.101 L53.272,2.101 L53.272,5.998 L65.536,5.998 L65.536,2.101 ZM78.400,11.997 L78.400,2.101 L67.645,2.101 L67.645,7.048 C67.645,7.629 67.173,8.100 66.591,8.100 L53.272,8.100 L53.272,11.997 L62.592,11.997 L69.080,11.997 L78.400,11.997 ZM63.647,14.099 L63.647,21.727 L68.025,21.727 L68.025,14.099 L63.647,14.099 ZM86.628,29.965 C86.628,26.582 83.867,23.829 80.473,23.829 L69.080,23.829 L62.592,23.829 L42.566,23.829 L42.566,29.019 C42.566,29.600 42.093,30.070 41.511,30.070 L20.632,30.070 C20.050,30.070 19.577,29.600 19.577,29.019 L19.577,23.830 C16.229,23.883 13.522,26.615 13.522,29.965 L13.522,52.602 L86.628,52.602 L86.628,29.965 ZM92.807,59.220 C92.807,56.730 90.775,54.705 88.278,54.705 L87.682,54.705 L12.468,54.705 L11.873,54.705 C9.375,54.705 7.343,56.730 7.343,59.220 L7.343,87.142 L92.807,87.142 L92.807,59.220 ZM97.890,89.245 L93.862,89.245 L6.288,89.245 L2.106,89.245 L2.106,98.453 L6.060,98.453 L6.060,94.800 C6.060,94.220 6.533,93.749 7.115,93.749 C7.697,93.749 8.169,94.220 8.169,94.800 L8.169,98.453 L13.847,98.453 L13.847,94.800 C13.847,94.220 14.319,93.749 14.901,93.749 C15.484,93.749 15.956,94.220 15.956,94.800 L15.956,98.453 L21.634,98.453 L21.634,94.800 C21.634,94.220 22.107,93.749 22.689,93.749 C23.271,93.749 23.743,94.220 23.743,94.800 L23.743,98.453 L29.421,98.453 L29.421,94.800 C29.421,94.220 29.893,93.749 30.475,93.749 C31.058,93.749 31.530,94.220 31.530,94.800 L31.530,98.453 L37.207,98.453 L37.207,94.800 C37.207,94.220 37.680,93.749 38.262,93.749 C38.844,93.749 39.316,94.220 39.316,94.800 L39.316,98.453 L43.872,98.453 L43.872,95.552 C43.872,94.971 44.345,94.501 44.927,94.501 C45.509,94.501 45.981,94.971 45.981,95.552 L45.981,98.453 L52.781,98.453 L52.781,94.800 C52.781,94.220 53.254,93.749 53.836,93.749 C54.418,93.749 54.890,94.220 54.890,94.800 L54.890,98.453 L60.568,98.453 L60.568,94.800 C60.568,94.220 61.040,93.749 61.622,93.749 C62.205,93.749 62.677,94.220 62.677,94.800 L62.677,98.453 L68.355,98.453 L68.355,94.800 C68.355,94.220 68.827,93.749 69.410,93.749 C69.992,93.749 70.464,94.220 70.464,94.800 L70.464,98.453 L76.142,98.453 L76.142,94.800 C76.142,94.220 76.614,93.749 77.196,93.749 C77.778,93.749 78.251,94.220 78.251,94.800 L78.251,98.453 L83.928,98.453 L83.928,94.800 C83.928,94.220 84.401,93.749 84.983,93.749 C85.565,93.749 86.037,94.220 86.037,94.800 L86.037,98.453 L91.716,98.453 L91.716,94.800 C91.716,94.220 92.188,93.749 92.770,93.749 C93.352,93.749 93.825,94.220 93.825,94.800 L93.825,98.453 L97.890,98.453 L97.890,89.245 ZM11.023,83.369 C11.220,83.566 11.333,83.839 11.333,84.113 C11.333,84.253 11.305,84.385 11.255,84.511 C11.199,84.645 11.122,84.757 11.023,84.855 C10.925,84.954 10.813,85.030 10.679,85.086 C10.552,85.136 10.419,85.163 10.278,85.163 C10.138,85.163 10.004,85.136 9.877,85.086 C9.744,85.030 9.632,84.954 9.533,84.855 C9.435,84.757 9.357,84.645 9.301,84.511 C9.252,84.385 9.224,84.253 9.224,84.113 C9.224,83.839 9.336,83.566 9.533,83.369 C9.920,82.977 10.637,82.977 11.023,83.369 ZM11.413,66.941 C11.413,66.922 11.423,66.906 11.424,66.887 L11.424,60.917 C11.424,60.336 11.897,59.865 12.479,59.865 L87.693,59.865 C88.275,59.865 88.748,60.336 88.748,60.917 L88.748,78.497 C88.748,79.077 88.275,79.548 87.693,79.548 L12.479,79.548 C11.897,79.548 11.424,79.077 11.424,78.497 L11.424,73.301 C11.423,73.282 11.413,73.266 11.413,73.247 C11.413,73.228 11.423,73.212 11.424,73.193 L11.424,66.996 C11.423,66.977 11.413,66.960 11.413,66.941 ZM13.533,65.890 L17.702,65.890 C18.284,65.890 18.756,66.361 18.756,66.941 C18.756,67.522 18.284,67.993 17.702,67.993 L13.533,67.993 L13.533,72.196 L17.702,72.196 C18.284,72.196 18.756,72.667 18.756,73.247 C18.756,73.828 18.284,74.298 17.702,74.298 L13.533,74.298 L13.533,77.445 L86.639,77.445 L86.639,73.911 L82.214,73.911 C81.632,73.911 81.160,73.441 81.160,72.860 C81.160,72.279 81.632,71.809 82.214,71.809 L86.639,71.809 L86.639,67.606 L82.214,67.606 C81.632,67.606 81.160,67.135 81.160,66.555 C81.160,65.974 81.632,65.503 82.214,65.503 L86.639,65.503 L86.639,61.968 L13.533,61.968 L13.533,65.890 ZM49.995,74.758 C47.201,74.758 44.928,72.492 44.928,69.706 C44.928,66.922 47.201,64.655 49.995,64.655 C52.789,64.655 55.062,66.922 55.062,69.706 C55.062,72.492 52.789,74.758 49.995,74.758 ZM49.995,66.758 C48.364,66.758 47.037,68.081 47.037,69.706 C47.037,71.333 48.364,72.656 49.995,72.656 C51.626,72.656 52.953,71.333 52.953,69.706 C52.953,68.081 51.626,66.758 49.995,66.758 ZM19.122,83.061 C19.706,83.061 20.177,83.531 20.177,84.113 C20.177,84.694 19.706,85.163 19.122,85.163 C18.539,85.163 18.068,84.694 18.068,84.113 C18.068,83.531 18.539,83.061 19.122,83.061 ZM27.973,83.061 C28.550,83.061 29.028,83.531 29.028,84.113 C29.028,84.694 28.550,85.163 27.973,85.163 C27.389,85.163 26.918,84.694 26.918,84.113 C26.918,83.531 27.389,83.061 27.973,83.061 ZM36.817,83.061 C37.400,83.061 37.871,83.531 37.871,84.113 C37.871,84.694 37.400,85.163 36.817,85.163 C36.233,85.163 35.762,84.694 35.762,84.113 C35.762,83.531 36.233,83.061 36.817,83.061 ZM45.661,83.061 C46.244,83.061 46.715,83.531 46.715,84.113 C46.715,84.694 46.244,85.163 45.661,85.163 C45.077,85.163 44.606,84.694 44.606,84.113 C44.606,83.531 45.077,83.061 45.661,83.061 ZM54.511,83.061 C55.095,83.061 55.566,83.531 55.566,84.113 C55.566,84.694 55.095,85.163 54.511,85.163 C53.928,85.163 53.457,84.694 53.457,84.113 C53.457,83.531 53.928,83.061 54.511,83.061 ZM63.355,83.061 C63.939,83.061 64.410,83.531 64.410,84.113 C64.410,84.694 63.939,85.163 63.355,85.163 C62.772,85.163 62.301,84.694 62.301,84.113 C62.301,83.531 62.772,83.061 63.355,83.061 ZM72.199,83.061 C72.783,83.061 73.254,83.531 73.254,84.113 C73.254,84.694 72.783,85.163 72.199,85.163 C71.615,85.163 71.145,84.694 71.145,84.113 C71.145,83.531 71.615,83.061 72.199,83.061 ZM81.050,83.061 C81.626,83.061 82.104,83.531 82.104,84.113 C82.104,84.694 81.626,85.163 81.050,85.163 C80.466,85.163 79.989,84.694 79.989,84.113 C79.989,83.531 80.466,83.061 81.050,83.061 ZM90.639,83.369 C90.836,83.566 90.948,83.839 90.948,84.113 C90.948,84.392 90.836,84.659 90.639,84.855 C90.442,85.051 90.174,85.163 89.894,85.163 C89.612,85.163 89.345,85.051 89.148,84.855 C88.952,84.659 88.839,84.392 88.839,84.113 C88.839,83.832 88.952,83.566 89.148,83.369 C89.542,82.977 90.245,82.977 90.639,83.369 ZM20.632,37.165 L28.138,37.165 C28.720,37.165 29.192,37.635 29.192,38.216 L29.192,45.698 C29.192,46.279 28.720,46.749 28.138,46.749 L20.632,46.749 C20.050,46.749 19.577,46.279 19.577,45.698 L19.577,38.216 C19.577,37.635 20.050,37.165 20.632,37.165 ZM21.686,44.647 L27.083,44.647 L27.083,39.267 L21.686,39.267 L21.686,44.647 ZM33.464,37.165 L40.970,37.165 C41.552,37.165 42.024,37.635 42.024,38.216 L42.024,45.698 C42.024,46.279 41.552,46.749 40.970,46.749 L33.464,46.749 C32.882,46.749 32.410,46.279 32.410,45.698 L32.410,38.216 C32.410,37.635 32.882,37.165 33.464,37.165 ZM34.519,44.647 L39.915,44.647 L39.915,39.267 L34.519,39.267 L34.519,44.647 ZM46.296,37.165 L53.802,37.165 C54.384,37.165 54.857,37.635 54.857,38.216 L54.857,45.698 C54.857,46.279 54.384,46.749 53.802,46.749 L46.296,46.749 C45.714,46.749 45.242,46.279 45.242,45.698 L45.242,38.216 C45.242,37.635 45.714,37.165 46.296,37.165 ZM47.351,44.647 L52.748,44.647 L52.748,39.267 L47.351,39.267 L47.351,44.647 ZM59.128,37.165 L66.634,37.165 C67.216,37.165 67.689,37.635 67.689,38.216 L67.689,45.698 C67.689,46.279 67.216,46.749 66.634,46.749 L59.128,46.749 C58.546,46.749 58.074,46.279 58.074,45.698 L58.074,38.216 C58.074,37.635 58.546,37.165 59.128,37.165 ZM60.183,44.647 L65.580,44.647 L65.580,39.267 L60.183,39.267 L60.183,44.647 ZM71.960,37.165 L79.466,37.165 C80.048,37.165 80.520,37.635 80.520,38.216 L80.520,45.698 C80.520,46.279 80.048,46.749 79.466,46.749 L71.960,46.749 C71.378,46.749 70.906,46.279 70.906,45.698 L70.906,38.216 C70.906,37.635 71.378,37.165 71.960,37.165 ZM73.015,44.647 L78.411,44.647 L78.411,39.267 L73.015,39.267 L73.015,44.647 ZM28.201,5.150 L33.942,5.150 C34.524,5.150 34.997,5.621 34.997,6.202 C34.997,6.782 34.524,7.253 33.942,7.253 L28.201,7.253 C27.619,7.253 27.146,6.782 27.146,6.202 C27.146,5.621 27.619,5.150 28.201,5.150 ZM28.201,9.063 L33.942,9.063 C34.524,9.063 34.997,9.534 34.997,10.115 C34.997,10.695 34.524,11.166 33.942,11.166 L28.201,11.166 C27.619,11.166 27.146,10.695 27.146,10.115 C27.146,9.534 27.619,9.063 28.201,9.063 ZM28.201,12.977 L33.942,12.977 C34.524,12.977 34.997,13.448 34.997,14.028 C34.997,14.609 34.524,15.079 33.942,15.079 L28.201,15.079 C27.619,15.079 27.146,14.609 27.146,14.028 C27.146,13.448 27.619,12.977 28.201,12.977 ZM28.201,16.890 L33.942,16.890 C34.524,16.890 34.997,17.360 34.997,17.941 C34.997,18.522 34.524,18.992 33.942,18.992 L28.201,18.992 C27.619,18.992 27.146,18.522 27.146,17.941 C27.146,17.360 27.619,16.890 28.201,16.890 Z"/>
</svg>