<svg 
 xmlns="http://www.w3.org/2000/svg"
 xmlns:xlink="http://www.w3.org/1999/xlink"
 width="240px" height="120px">
<path fill-rule="evenodd"  fill="rgb(51, 50, 59)"
 d="M-0.000,0.000 L240.000,0.000 L240.000,120.000 L-0.000,120.000 L-0.000,0.000 Z"/>
<path fill-rule="evenodd"  fill="rgb(243, 242, 245)"
 d="M178.477,64.000 L172.431,64.000 L172.431,69.000 L167.391,69.000 L167.391,49.000 L178.478,49.000 C182.626,49.022 185.983,52.350 186.004,56.463 C186.024,60.604 182.655,63.979 178.477,64.000 ZM178.478,54.000 L172.431,54.000 L172.431,59.000 L178.478,59.000 C179.870,59.000 181.000,57.881 181.000,56.500 C181.000,55.119 179.870,54.000 178.478,54.000 ZM147.740,49.000 L164.369,49.000 L164.369,53.902 L152.779,53.902 L152.779,56.550 L163.360,56.550 L163.360,61.450 L152.779,61.450 L152.779,64.097 L164.369,64.097 L164.369,69.000 L147.740,69.000 L147.740,49.000 ZM138.669,61.500 L128.592,61.500 L128.592,69.000 L123.553,69.000 L123.553,49.000 L128.592,49.000 L128.592,56.500 L138.671,56.500 L138.671,49.000 L143.708,49.000 L143.708,69.000 L138.669,69.000 L138.669,61.500 ZM110.954,69.500 C105.116,69.481 100.388,64.790 100.373,59.000 C100.388,53.210 105.116,48.519 110.955,48.501 C116.794,48.519 121.522,53.210 121.537,59.000 C121.522,64.790 116.794,69.481 110.954,69.500 ZM110.950,53.500 C107.888,53.505 105.407,55.968 105.407,59.005 C105.410,62.042 107.895,64.502 110.959,64.500 C114.022,64.498 116.504,62.033 116.501,58.996 C116.500,55.958 114.014,53.498 110.950,53.500 ZM93.303,56.500 L83.855,69.000 L78.186,69.000 L78.186,49.000 L83.225,49.000 L83.225,61.500 L92.673,49.000 L98.342,49.000 L98.342,69.000 L93.303,69.000 L93.303,56.500 ZM69.116,54.000 L59.038,54.000 L59.038,69.000 L54.000,69.000 L54.000,49.000 L69.116,49.000 L74.156,49.000 L74.156,69.000 L69.116,69.000 L69.116,54.000 Z"/>
<path fill-rule="evenodd"  fill="rgb(124, 77, 255)"
 d="M186.004,84.000 L186.004,84.000 L186.004,69.000 L180.961,69.000 L180.961,79.000 L59.042,79.000 L59.042,74.000 L54.000,74.000 L54.000,93.999 L59.042,93.999 L59.042,84.000 L180.961,84.000 L186.004,84.000 ZM54.000,44.000 L59.042,44.000 L59.042,39.001 L180.961,39.001 L180.961,44.000 L186.004,44.000 L186.004,34.000 L186.004,34.000 L180.961,34.000 L54.000,34.000 L54.000,44.000 Z"/>
</svg>