<svg 
 xmlns="http://www.w3.org/2000/svg"
 xmlns:xlink="http://www.w3.org/1999/xlink"
 width="101px" height="100px">
<path fill-rule="evenodd"  fill="rgb(51, 50, 59)"
 d="M92.761,14.072 C89.077,14.072 86.080,11.052 86.080,7.341 C86.080,3.629 89.077,0.609 92.761,0.609 C96.444,0.609 99.442,3.629 99.442,7.341 C99.442,11.052 96.444,14.072 92.761,14.072 ZM92.761,2.707 C90.225,2.707 88.161,4.786 88.161,7.341 C88.161,9.896 90.225,11.975 92.761,11.975 C95.296,11.975 97.360,9.896 97.360,7.341 C97.360,4.786 95.296,2.707 92.761,2.707 ZM83.780,16.809 L92.037,16.809 C92.612,16.809 93.078,17.279 93.078,17.858 L93.078,26.804 C93.078,27.383 92.612,27.853 92.037,27.853 C91.462,27.853 90.996,27.383 90.996,26.804 L90.996,18.907 L83.780,18.907 L86.270,21.414 L83.273,21.414 L79.743,17.858 L83.273,14.302 L86.270,14.302 L83.780,16.809 ZM90.996,51.025 L88.508,53.533 L88.508,50.514 L92.037,46.959 L95.566,50.514 L95.566,53.533 L93.078,51.025 L93.078,56.265 C93.078,56.844 92.612,57.313 92.037,57.313 L79.743,57.313 C79.169,57.313 78.702,56.844 78.702,56.265 C78.702,55.685 79.169,55.216 79.743,55.216 L90.996,55.216 L90.996,51.025 ZM73.409,57.313 L71.163,57.313 L71.074,67.054 L78.593,67.054 C79.168,67.054 79.634,67.523 79.634,68.103 L79.634,72.813 C79.634,75.784 77.235,78.202 74.286,78.202 L55.497,78.202 C52.013,78.202 49.179,75.346 49.179,71.835 L49.270,57.313 L47.798,57.313 C44.840,57.313 42.432,54.888 42.432,51.907 L42.432,15.245 C42.432,12.263 44.840,9.838 47.798,9.838 L73.409,9.838 C76.367,9.838 78.774,12.263 78.774,15.245 L78.774,51.907 C78.774,54.888 76.367,57.313 73.409,57.313 ZM73.629,76.037 C73.842,76.081 74.061,76.104 74.286,76.104 C76.087,76.104 77.552,74.628 77.552,72.813 L77.552,69.151 L76.844,69.151 L76.844,71.239 C76.844,71.818 76.377,72.288 75.803,72.288 C75.228,72.288 74.762,71.818 74.762,71.239 L74.762,69.151 L73.865,69.151 L73.865,71.239 C73.865,71.818 73.399,72.288 72.824,72.288 C72.250,72.288 71.783,71.818 71.783,71.239 L71.783,69.151 L71.063,69.151 L71.020,72.818 C71.023,74.404 72.144,75.730 73.629,76.037 ZM55.497,76.104 L70.055,76.104 C70.015,76.053 69.986,75.993 69.949,75.940 C69.879,75.843 69.817,75.743 69.754,75.641 C69.646,75.465 69.549,75.284 69.461,75.096 C69.409,74.987 69.359,74.879 69.315,74.765 C69.235,74.559 69.173,74.346 69.119,74.129 C69.093,74.025 69.060,73.925 69.040,73.819 C68.978,73.492 68.939,73.158 68.939,72.813 C68.939,72.810 68.939,72.806 68.939,72.803 L69.082,57.313 L51.352,57.313 L51.260,71.842 C51.260,74.189 53.161,76.104 55.497,76.104 ZM76.692,15.245 C76.692,13.420 75.220,11.936 73.409,11.936 L47.798,11.936 C45.987,11.936 44.514,13.420 44.514,15.245 L44.514,51.907 C44.514,53.731 45.987,55.216 47.798,55.216 L50.318,55.216 L70.132,55.216 L73.409,55.216 C75.220,55.216 76.692,53.731 76.692,51.907 L76.692,15.245 ZM72.606,50.309 L66.962,50.309 C66.387,50.309 65.921,49.839 65.921,49.260 L65.921,43.574 C65.921,42.995 66.387,42.525 66.962,42.525 L72.606,42.525 C73.180,42.525 73.646,42.995 73.646,43.574 L73.646,49.260 C73.646,49.839 73.180,50.309 72.606,50.309 ZM71.565,44.623 L68.003,44.623 L68.003,48.211 L71.565,48.211 L71.565,44.623 ZM72.606,40.202 L66.962,40.202 C66.387,40.202 65.921,39.732 65.921,39.153 L65.921,33.466 C65.921,32.887 66.387,32.418 66.962,32.418 L72.606,32.418 C73.180,32.418 73.646,32.887 73.646,33.466 L73.646,39.153 C73.646,39.732 73.180,40.202 72.606,40.202 ZM71.565,34.515 L68.003,34.515 L68.003,38.104 L71.565,38.104 L71.565,34.515 ZM72.219,29.242 L48.988,29.242 C48.413,29.242 47.947,28.772 47.947,28.194 L47.947,15.612 C47.947,15.033 48.413,14.563 48.988,14.563 L72.219,14.563 C72.794,14.563 73.260,15.033 73.260,15.612 L73.260,28.194 C73.260,28.772 72.794,29.242 72.219,29.242 ZM71.178,16.660 L50.028,16.660 L50.028,27.145 L71.178,27.145 L71.178,16.660 ZM54.187,32.418 C54.762,32.418 55.228,32.887 55.228,33.466 L55.228,39.153 C55.228,39.732 54.762,40.202 54.187,40.202 L48.544,40.202 C47.970,40.202 47.503,39.732 47.503,39.153 L47.503,33.466 C47.503,32.887 47.970,32.418 48.544,32.418 L54.187,32.418 ZM49.585,38.104 L53.146,38.104 L53.146,34.515 L49.585,34.515 L49.585,38.104 ZM48.544,42.525 L54.187,42.525 C54.762,42.525 55.228,42.995 55.228,43.574 L55.228,49.260 C55.228,49.839 54.762,50.309 54.187,50.309 L48.544,50.309 C47.970,50.309 47.503,49.839 47.503,49.260 L47.503,43.574 C47.503,42.995 47.970,42.525 48.544,42.525 ZM49.585,48.211 L53.146,48.211 L53.146,44.623 L49.585,44.623 L49.585,48.211 ZM57.753,32.418 L63.396,32.418 C63.971,32.418 64.437,32.887 64.437,33.466 L64.437,39.153 C64.437,39.732 63.971,40.202 63.396,40.202 L57.753,40.202 C57.178,40.202 56.712,39.732 56.712,39.153 L56.712,33.466 C56.712,32.887 57.178,32.418 57.753,32.418 ZM58.794,38.104 L62.355,38.104 L62.355,34.515 L58.794,34.515 L58.794,38.104 ZM57.753,42.525 L63.396,42.525 C63.971,42.525 64.437,42.995 64.437,43.574 L64.437,49.260 C64.437,49.839 63.971,50.309 63.396,50.309 L57.753,50.309 C57.178,50.309 56.712,49.839 56.712,49.260 L56.712,43.574 C56.712,42.995 57.178,42.525 57.753,42.525 ZM58.794,48.211 L62.355,48.211 L62.355,44.623 L58.794,44.623 L58.794,48.211 ZM54.658,59.861 L65.307,59.861 C65.882,59.861 66.348,60.331 66.348,60.909 C66.348,61.488 65.882,61.958 65.307,61.958 L54.658,61.958 C54.084,61.958 53.617,61.488 53.617,60.909 C53.617,60.331 54.084,59.861 54.658,59.861 ZM54.658,65.044 L65.307,65.044 C65.882,65.044 66.348,65.514 66.348,66.093 C66.348,66.672 65.882,67.142 65.307,67.142 L54.658,67.142 C54.084,67.142 53.617,66.672 53.617,66.093 C53.617,65.514 54.084,65.044 54.658,65.044 ZM54.658,70.228 L65.307,70.228 C65.882,70.228 66.348,70.698 66.348,71.277 C66.348,71.856 65.882,72.326 65.307,72.326 L54.658,72.326 C54.084,72.326 53.617,71.856 53.617,71.277 C53.617,70.698 54.084,70.228 54.658,70.228 ZM52.042,83.052 C52.617,83.052 53.083,83.522 53.083,84.101 L53.083,91.027 C53.083,95.426 49.533,99.004 45.168,99.004 C45.120,99.004 45.073,99.003 45.025,99.001 L21.766,98.788 C17.333,98.767 13.723,95.112 13.723,90.641 L13.742,15.950 L1.036,15.950 C0.461,15.950 -0.005,15.480 -0.005,14.902 L-0.005,7.975 C-0.005,3.578 3.546,-0.000 7.910,-0.000 C7.958,-0.000 8.005,0.000 8.053,0.001 L31.313,0.214 C35.745,0.236 39.354,3.891 39.354,8.361 L39.336,83.052 L52.042,83.052 ZM12.898,4.954 C12.864,4.897 12.840,4.833 12.804,4.777 C12.630,4.506 12.436,4.250 12.222,4.013 C12.213,4.003 12.202,3.995 12.193,3.985 C11.988,3.761 11.767,3.552 11.531,3.363 C11.460,3.306 11.379,3.263 11.305,3.210 C11.123,3.078 10.941,2.946 10.745,2.836 C10.642,2.778 10.530,2.738 10.424,2.687 C10.245,2.601 10.068,2.510 9.879,2.442 C9.754,2.397 9.621,2.372 9.493,2.335 C9.313,2.284 9.135,2.227 8.949,2.193 C8.806,2.168 8.658,2.164 8.513,2.149 C8.313,2.128 8.116,2.097 7.911,2.097 L7.909,2.097 C4.694,2.098 2.077,4.735 2.077,7.975 L2.077,13.853 L4.345,13.853 L4.344,11.493 C4.344,10.913 4.809,10.444 5.384,10.444 C5.385,10.444 5.385,10.444 5.385,10.444 C5.959,10.444 6.426,10.913 6.426,11.491 L6.427,13.853 L9.395,13.853 L9.394,11.493 C9.394,10.913 9.860,10.443 10.435,10.443 C10.435,10.443 10.435,10.443 10.435,10.443 C11.010,10.443 11.476,10.912 11.476,11.491 L11.477,13.853 L13.743,13.853 L13.744,8.038 L13.567,6.572 C13.517,6.369 13.443,6.178 13.374,5.984 C13.333,5.869 13.304,5.746 13.257,5.635 C13.155,5.396 13.028,5.174 12.898,4.954 ZM38.676,95.564 C38.614,95.474 38.545,95.389 38.487,95.296 C38.273,94.954 38.082,94.596 37.920,94.219 C37.888,94.144 37.867,94.063 37.836,93.986 C37.740,93.741 37.641,93.496 37.568,93.238 C37.367,93.041 37.252,92.770 37.252,92.486 L37.252,91.033 C37.252,91.031 37.252,91.029 37.252,91.027 L37.252,84.101 C37.252,84.097 37.254,84.094 37.254,84.090 L37.273,8.361 C37.273,5.041 34.593,2.328 31.298,2.312 L13.320,2.147 C13.407,2.229 13.479,2.325 13.562,2.411 C13.677,2.530 13.790,2.651 13.898,2.777 C14.062,2.970 14.213,3.173 14.359,3.382 C14.450,3.513 14.545,3.641 14.629,3.778 C14.775,4.017 14.900,4.269 15.022,4.526 C15.081,4.650 15.149,4.767 15.202,4.896 C15.364,5.287 15.502,5.693 15.602,6.117 C15.611,6.156 15.619,6.195 15.623,6.234 L15.624,6.237 C15.744,6.776 15.808,7.314 15.818,7.841 L15.819,7.848 C15.823,7.890 15.826,7.933 15.826,7.975 L15.826,14.902 C15.826,14.905 15.824,14.907 15.824,14.910 L15.805,90.641 C15.805,93.961 18.485,96.675 21.780,96.690 L39.758,96.856 C39.664,96.767 39.584,96.665 39.494,96.572 C39.397,96.471 39.301,96.371 39.210,96.265 C39.018,96.043 38.843,95.808 38.676,95.564 ZM39.334,91.031 C39.334,91.474 39.390,91.933 39.500,92.397 C39.500,92.397 39.500,92.397 39.500,92.397 C39.578,92.727 39.683,93.044 39.811,93.347 C39.854,93.448 39.915,93.539 39.963,93.637 C40.058,93.832 40.149,94.029 40.264,94.210 C40.333,94.318 40.419,94.412 40.494,94.516 C40.608,94.671 40.716,94.832 40.844,94.974 C40.934,95.075 41.040,95.160 41.137,95.254 C41.268,95.381 41.393,95.515 41.535,95.629 C41.644,95.716 41.767,95.786 41.882,95.866 C42.027,95.966 42.168,96.073 42.322,96.160 C42.448,96.231 42.584,96.282 42.715,96.343 C42.873,96.417 43.026,96.498 43.191,96.558 C43.330,96.608 43.478,96.637 43.622,96.677 C43.789,96.723 43.953,96.777 44.125,96.808 C44.275,96.836 44.432,96.841 44.586,96.856 C44.779,96.875 44.969,96.906 45.166,96.906 L45.168,96.906 C48.385,96.905 51.001,94.269 51.001,91.027 L51.001,85.150 L48.733,85.150 L48.734,87.509 C48.734,88.089 48.269,88.559 47.694,88.559 C47.693,88.559 47.693,88.559 47.693,88.559 C47.118,88.559 46.652,88.090 46.652,87.511 L46.651,85.150 L43.683,85.150 L43.684,87.510 C43.685,88.089 43.219,88.559 42.644,88.559 L42.643,88.559 C42.069,88.559 41.603,88.090 41.602,87.511 L41.601,85.150 L39.335,85.150 L39.334,91.031 ZM34.252,30.262 L19.658,30.262 C19.084,30.262 18.617,29.792 18.617,29.214 C18.617,28.634 19.084,28.165 19.658,28.165 L34.252,28.165 C34.827,28.165 35.293,28.634 35.293,29.214 C35.293,29.792 34.827,30.262 34.252,30.262 ZM34.357,24.080 C34.233,24.136 34.101,24.164 33.962,24.164 C33.685,24.164 33.421,24.053 33.226,23.857 C33.025,23.654 32.922,23.395 32.922,23.115 C32.922,23.045 32.928,22.975 32.942,22.906 C32.956,22.843 32.977,22.772 32.997,22.710 C33.025,22.647 33.060,22.591 33.095,22.528 C33.136,22.472 33.178,22.423 33.226,22.374 C33.608,21.983 34.309,21.983 34.698,22.374 C34.747,22.423 34.788,22.472 34.822,22.528 C34.864,22.591 34.899,22.647 34.920,22.710 C34.948,22.772 34.969,22.843 34.982,22.906 C34.996,22.975 35.003,23.045 35.003,23.115 C35.003,23.395 34.892,23.654 34.698,23.857 C34.601,23.955 34.483,24.031 34.357,24.080 ZM27.994,23.115 C27.994,23.689 27.529,24.164 26.953,24.164 C26.377,24.164 25.912,23.689 25.912,23.115 C25.912,22.535 26.377,22.066 26.953,22.066 C27.529,22.066 27.994,22.535 27.994,23.115 ZM19.084,22.528 C19.119,22.472 19.168,22.423 19.216,22.374 C19.598,21.983 20.298,21.983 20.688,22.374 C20.736,22.423 20.778,22.472 20.812,22.528 C20.854,22.591 20.881,22.647 20.909,22.710 C20.937,22.772 20.958,22.843 20.971,22.906 C20.986,22.975 20.993,23.045 20.993,23.115 C20.993,23.395 20.881,23.654 20.688,23.857 C20.486,24.053 20.229,24.164 19.952,24.164 C19.675,24.164 19.410,24.053 19.216,23.857 C19.015,23.654 18.911,23.395 18.911,23.115 C18.911,23.045 18.918,22.975 18.932,22.906 C18.945,22.843 18.960,22.772 18.987,22.710 C19.015,22.647 19.050,22.591 19.084,22.528 ZM33.961,18.907 L19.950,18.907 C19.375,18.907 18.909,18.437 18.909,17.858 L18.909,13.119 C18.909,12.540 19.375,12.070 19.950,12.070 L33.961,12.070 C34.536,12.070 35.002,12.540 35.002,13.119 L35.002,17.858 C35.002,18.437 34.536,18.907 33.961,18.907 ZM32.920,14.168 L20.990,14.168 L20.990,16.809 L32.920,16.809 L32.920,14.168 ZM19.553,35.261 L34.146,35.261 C34.721,35.261 35.187,35.731 35.187,36.310 C35.187,36.888 34.721,37.358 34.146,37.358 L19.553,37.358 C18.978,37.358 18.512,36.888 18.512,36.310 C18.512,35.731 18.978,35.261 19.553,35.261 ZM19.447,42.357 L34.040,42.357 C34.615,42.357 35.081,42.827 35.081,43.405 C35.081,43.984 34.615,44.454 34.040,44.454 L19.447,44.454 C18.872,44.454 18.406,43.984 18.406,43.405 C18.406,42.827 18.872,42.357 19.447,42.357 ZM19.342,49.453 L33.935,49.453 C34.510,49.453 34.976,49.923 34.976,50.502 C34.976,51.081 34.510,51.550 33.935,51.550 L19.342,51.550 C18.767,51.550 18.301,51.081 18.301,50.502 C18.301,49.923 18.767,49.453 19.342,49.453 ZM34.503,66.541 C34.455,66.673 34.378,66.785 34.281,66.883 C34.184,66.981 34.066,67.058 33.941,67.114 C33.817,67.163 33.685,67.191 33.546,67.191 C33.269,67.191 33.005,67.079 32.810,66.883 C32.713,66.785 32.637,66.673 32.581,66.541 C32.532,66.415 32.505,66.282 32.505,66.143 C32.505,66.072 32.512,66.002 32.526,65.939 C32.540,65.869 32.560,65.806 32.581,65.744 C32.609,65.681 32.644,65.617 32.678,65.562 C32.713,65.499 32.762,65.450 32.810,65.401 C33.192,65.009 33.893,65.009 34.281,65.401 C34.330,65.450 34.372,65.499 34.413,65.562 C34.448,65.617 34.483,65.681 34.503,65.744 C34.531,65.806 34.552,65.869 34.566,65.939 C34.580,66.002 34.587,66.072 34.587,66.143 C34.587,66.282 34.559,66.415 34.503,66.541 ZM27.578,66.143 C27.578,66.723 27.113,67.191 26.537,67.191 C25.961,67.191 25.496,66.723 25.496,66.143 C25.496,65.562 25.961,65.094 26.537,65.094 C27.113,65.094 27.578,65.562 27.578,66.143 ZM18.668,65.562 C18.710,65.499 18.752,65.450 18.800,65.401 C19.182,65.009 19.883,65.009 20.271,65.401 C20.320,65.450 20.361,65.499 20.396,65.562 C20.438,65.617 20.472,65.681 20.493,65.744 C20.521,65.806 20.542,65.869 20.555,65.939 C20.570,66.002 20.576,66.072 20.576,66.143 C20.576,66.282 20.549,66.415 20.493,66.541 C20.444,66.673 20.368,66.785 20.271,66.883 C20.070,67.079 19.813,67.191 19.535,67.191 C19.258,67.191 18.994,67.079 18.800,66.883 C18.703,66.785 18.626,66.673 18.571,66.541 C18.515,66.415 18.495,66.282 18.495,66.143 C18.495,66.072 18.502,66.002 18.515,65.939 C18.529,65.869 18.543,65.806 18.571,65.744 C18.598,65.681 18.634,65.617 18.668,65.562 ZM18.493,56.149 C18.493,55.570 18.959,55.100 19.534,55.100 L33.545,55.100 C34.120,55.100 34.586,55.570 34.586,56.149 L34.586,60.888 C34.586,61.467 34.120,61.937 33.545,61.937 L19.534,61.937 C18.959,61.937 18.493,61.467 18.493,60.888 L18.493,56.149 ZM20.574,59.839 L32.504,59.839 L32.504,57.198 L20.574,57.198 L20.574,59.839 ZM33.618,70.741 C34.193,70.741 34.659,71.210 34.659,71.790 C34.659,72.369 34.193,72.838 33.618,72.838 L19.025,72.838 C18.450,72.838 17.984,72.369 17.984,71.790 C17.984,71.210 18.450,70.741 19.025,70.741 L33.618,70.741 ZM18.919,77.837 L33.512,77.837 C34.087,77.837 34.553,78.307 34.553,78.886 C34.553,79.465 34.087,79.935 33.512,79.935 L18.919,79.935 C18.344,79.935 17.878,79.465 17.878,78.886 C17.878,78.307 18.344,77.837 18.919,77.837 ZM18.814,84.933 L33.407,84.933 C33.982,84.933 34.448,85.403 34.448,85.982 C34.448,86.561 33.982,87.031 33.407,87.031 L18.814,87.031 C18.239,87.031 17.773,86.561 17.773,85.982 C17.773,85.403 18.239,84.933 18.814,84.933 ZM65.919,81.002 C70.999,81.002 75.133,85.167 75.133,90.286 C75.133,95.404 70.999,99.569 65.919,99.569 C60.838,99.569 56.705,95.404 56.705,90.286 C56.705,85.167 60.838,81.002 65.919,81.002 ZM65.919,97.472 C69.852,97.472 73.051,94.248 73.051,90.286 C73.051,86.323 69.852,83.099 65.919,83.099 C61.986,83.099 58.787,86.323 58.787,90.286 C58.787,94.248 61.986,97.472 65.919,97.472 ZM64.878,85.555 L64.878,84.875 C64.878,84.296 65.344,83.827 65.919,83.827 C66.494,83.827 66.960,84.296 66.960,84.875 L66.960,85.556 C68.045,85.806 68.858,86.782 68.858,87.950 C68.858,88.528 68.392,89.021 67.817,89.021 C67.243,89.021 66.776,88.573 66.776,87.994 C66.776,87.750 66.614,87.587 66.415,87.587 L65.422,87.587 C65.224,87.587 65.062,87.750 65.062,87.950 L65.062,88.951 C65.062,89.151 65.224,89.314 65.422,89.314 L66.415,89.314 C67.762,89.314 68.858,90.418 68.858,91.775 L68.858,92.776 C68.858,93.943 68.045,94.919 66.960,95.169 L66.960,95.695 C66.960,96.274 66.494,96.743 65.919,96.743 C65.344,96.743 64.878,96.274 64.878,95.695 L64.878,95.169 C63.794,94.919 62.980,93.943 62.980,92.776 C62.980,92.197 63.446,91.727 64.021,91.727 C64.595,91.727 65.062,92.197 65.062,92.776 C65.062,92.976 65.224,93.139 65.422,93.139 L66.415,93.139 C66.614,93.139 66.776,92.976 66.776,92.776 L66.776,91.775 C66.776,91.574 66.614,91.412 66.415,91.412 L65.422,91.412 C64.076,91.412 62.980,90.307 62.980,88.951 L62.980,87.950 C62.980,86.782 63.794,85.806 64.878,85.555 ZM90.190,74.834 C86.506,74.834 83.509,71.814 83.509,68.103 C83.509,64.391 86.506,61.371 90.190,61.371 C93.873,61.371 96.871,64.391 96.871,68.103 C96.871,71.814 93.873,74.834 90.190,74.834 ZM90.190,63.468 C87.654,63.468 85.591,65.548 85.591,68.103 C85.591,70.658 87.654,72.737 90.190,72.737 C92.725,72.737 94.789,70.658 94.789,68.103 C94.789,65.548 92.725,63.468 90.190,63.468 ZM92.037,46.207 C87.100,46.207 83.083,42.160 83.083,37.186 C83.083,32.211 87.100,28.165 92.037,28.165 C96.974,28.165 100.991,32.211 100.991,37.186 C100.991,42.160 96.974,46.207 92.037,46.207 ZM92.037,30.262 C88.248,30.262 85.165,33.368 85.165,37.186 C85.165,41.004 88.248,44.110 92.037,44.110 C95.826,44.110 98.909,41.004 98.909,37.186 C98.909,33.368 95.826,30.262 92.037,30.262 ZM93.078,41.938 L93.078,42.424 C93.078,43.003 92.612,43.473 92.037,43.473 C91.462,43.473 90.996,43.003 90.996,42.424 L90.996,41.938 C89.945,41.683 89.159,40.734 89.159,39.597 C89.159,39.018 89.625,38.548 90.200,38.548 C90.774,38.548 91.241,39.018 91.241,39.597 C91.241,39.772 91.382,39.915 91.556,39.915 L92.517,39.915 C92.692,39.915 92.834,39.772 92.834,39.597 L92.834,38.628 C92.834,38.453 92.692,38.309 92.517,38.309 L91.556,38.309 C90.234,38.309 89.159,37.226 89.159,35.894 L89.159,34.925 C89.159,33.788 89.945,32.839 90.996,32.583 L90.996,31.948 C90.996,31.369 91.462,30.899 92.037,30.899 C92.612,30.899 93.078,31.369 93.078,31.948 L93.078,32.583 C94.129,32.838 94.916,33.788 94.916,34.925 C94.916,35.503 94.449,35.994 93.875,35.994 C93.300,35.994 92.834,35.547 92.834,34.968 C92.834,34.750 92.692,34.607 92.517,34.607 L91.556,34.607 C91.382,34.607 91.241,34.750 91.241,34.925 L91.241,35.894 C91.241,36.069 91.382,36.212 91.556,36.212 L92.517,36.212 C93.839,36.212 94.916,37.296 94.916,38.628 L94.916,39.597 C94.916,40.734 94.129,41.683 93.078,41.938 ZM88.960,78.027 C94.973,78.027 99.865,82.955 99.865,89.013 C99.865,95.072 94.973,100.000 88.960,100.000 C82.947,100.000 78.056,95.072 78.056,89.013 C78.056,82.955 82.947,78.027 88.960,78.027 ZM88.960,97.902 C93.825,97.902 97.783,93.916 97.783,89.013 C97.783,84.112 93.825,80.124 88.960,80.124 C84.095,80.124 80.138,84.112 80.138,89.013 C80.138,93.916 84.095,97.902 88.960,97.902 ZM87.919,83.487 L87.919,82.485 C87.919,81.906 88.386,81.436 88.960,81.436 C89.535,81.436 90.001,81.906 90.001,82.485 L90.001,83.487 C91.298,83.701 92.292,84.829 92.292,86.195 C92.292,86.774 91.826,87.270 91.251,87.270 C90.677,87.270 90.210,86.827 90.210,86.248 C90.210,85.834 89.918,85.539 89.559,85.539 L88.361,85.539 C88.003,85.539 87.711,85.834 87.711,86.195 L87.711,87.402 C87.711,87.763 88.003,88.058 88.361,88.058 L89.559,88.058 C91.066,88.058 92.292,89.293 92.292,90.810 L92.292,92.018 C92.292,93.384 91.298,94.512 90.001,94.726 L90.001,95.542 C90.001,96.121 89.535,96.591 88.960,96.591 C88.386,96.591 87.919,96.121 87.919,95.542 L87.919,94.726 C86.623,94.512 85.629,93.384 85.629,92.018 C85.629,91.439 86.095,90.969 86.670,90.969 C87.244,90.969 87.711,91.439 87.711,92.018 C87.711,92.380 88.003,92.674 88.361,92.674 L89.559,92.674 C89.918,92.674 90.210,92.380 90.210,92.018 L90.210,90.810 C90.210,90.450 89.918,90.155 89.559,90.155 L88.361,90.155 C86.855,90.155 85.629,88.920 85.629,87.402 L85.629,86.195 C85.629,84.830 86.623,83.702 87.919,83.487 Z"/>
</svg>